<?xml version="1.0" standalone="no"?>
<!DOCTYPE svg PUBLIC "-//W3C//DTD SVG 20010904//EN"
 "http://www.w3.org/TR/2001/REC-SVG-20010904/DTD/svg10.dtd">
<svg version="1.0" xmlns="http://www.w3.org/2000/svg"
 width="1280.000000pt" height="1277.000000pt" viewBox="0 0 1280.000000 1277.000000"
 preserveAspectRatio="xMidYMid meet">
<metadata>
Created by potrace 1.15, written by Peter Selinger 2001-2017
</metadata>
<g transform="translate(0.000000,1277.000000) scale(0.100000,-0.100000)"
fill="#ffffff" stroke="none">
<path d="M6145 12474 c-411 -25 -656 -52 -918 -100 -953 -174 -1790 -548
-2517 -1123 -851 -673 -1564 -1652 -2000 -2746 -77 -193 -160 -450 -180 -554
-35 -187 -35 -172 -5 -161 53 20 53 19 14 -157 -21 -92 -50 -237 -64 -323 -15
-85 -30 -158 -33 -161 -4 -4 -37 -16 -73 -28 l-67 -22 -7 -287 c-9 -325 7
-1034 30 -1347 37 -493 102 -899 187 -1164 157 -492 638 -1248 1377 -2167 220
-273 315 -383 322 -370 4 6 21 74 39 151 18 77 34 143 37 148 2 4 23 -9 46
-28 23 -20 101 -86 173 -146 l131 -110 -23 -82 -24 -81 52 -54 c71 -72 234
-203 382 -305 776 -537 1775 -862 2911 -947 1163 -87 2241 132 3327 676 305
153 714 407 933 579 19 15 19 17 2 98 -9 45 -17 85 -17 88 0 3 28 28 63 55 34
27 114 93 177 147 l115 99 26 -107 c15 -58 29 -108 31 -110 8 -8 321 375 553
675 325 420 618 842 805 1160 119 202 269 507 315 640 134 388 209 942 235
1745 11 351 13 655 3 927 l-6 196 -53 18 -53 18 -11 70 c-17 99 -68 347 -90
434 -17 69 -17 72 -1 67 15 -4 22 8 40 70 l21 75 -41 127 c-259 800 -715 1632
-1253 2283 -302 366 -702 750 -1056 1012 -545 404 -1143 700 -1782 883 -409
118 -811 189 -1263 225 -134 11 -704 21 -810 14z m1107 -1078 c470 -71 863
-198 1307 -420 631 -316 1237 -812 1698 -1390 127 -160 140 -192 154 -375 14
-199 26 -269 58 -336 62 -134 215 -353 414 -592 l109 -131 224 -63 223 -62 26
-71 c49 -138 132 -442 122 -452 -2 -2 -57 14 -122 36 -66 22 -123 40 -127 40
-4 0 -8 -53 -8 -118 0 -334 -77 -555 -220 -627 -143 -73 -383 -94 -635 -56
-315 47 -653 157 -1064 345 -80 36 -146 66 -148 66 -2 0 -1 -11 3 -25 8 -32 2
-31 -87 6 -41 16 -189 73 -329 126 -1137 425 -2052 645 -2575 619 -449 -22
-1110 -189 -1925 -486 -332 -122 -793 -308 -1045 -422 -657 -300 -1247 -401
-1573 -271 -173 69 -248 243 -259 598 l-6 171 -110 -38 c-60 -21 -111 -37
-113 -35 -6 5 57 252 100 396 55 180 71 218 93 225 10 3 81 23 158 46 77 22
151 45 165 51 38 15 358 354 481 509 67 85 123 175 152 245 17 38 58 184 93
323 84 339 112 398 266 560 423 443 849 785 1273 1023 557 312 1240 507 2045
584 311 30 395 33 705 30 271 -3 331 -7 477 -29z m2436 -5746 c38 -132 40
-135 68 -138 87 -8 335 -47 439 -68 324 -68 562 -159 731 -279 105 -75 170
-173 195 -295 18 -87 6 -276 -26 -400 -90 -346 -356 -827 -722 -1302 l-71 -93
23 -100 24 -100 -77 -78 c-42 -43 -120 -119 -174 -168 l-96 -89 -23 97 c-13
54 -24 99 -25 101 -1 2 -49 -34 -106 -80 -473 -384 -975 -703 -1384 -879 -241
-103 -446 -156 -634 -166 -283 -14 -459 64 -539 236 -81 176 -103 331 -100
696 2 204 0 269 -9 268 -18 -4 -15 27 24 254 172 1010 452 1727 780 1997 213
176 634 301 1210 360 76 8 189 17 249 21 61 3 140 8 176 11 l66 6 -8 36 c-14
60 -109 551 -108 559 0 5 18 -55 39 -132 22 -77 57 -201 78 -275z m-6384 -235
c633 -56 1122 -183 1375 -358 97 -67 216 -203 313 -359 60 -97 180 -342 233
-478 62 -157 160 -463 215 -665 48 -180 141 -598 155 -695 l6 -45 -37 -2 c-44
-2 -54 -14 -54 -68 0 -62 -47 -348 -76 -465 -53 -213 -134 -398 -216 -494 -45
-53 -130 -106 -169 -106 -14 0 -29 -4 -35 -10 -5 -5 -44 -14 -86 -20 -226 -32
-555 66 -917 272 -312 177 -665 434 -984 716 -74 65 -119 99 -122 90 -2 -7
-16 -53 -30 -101 l-26 -88 -87 80 c-48 44 -132 125 -186 180 l-100 100 11 48
11 48 -113 150 c-390 520 -633 982 -699 1334 -31 161 -17 331 36 435 115 228
515 402 1138 495 157 24 229 25 444 6z"/>
</g>
</svg>
